<svg id="Слой_1" data-name="Слой 1" xmlns="http://www.w3.org/2000/svg" viewBox="0 0 389.28 72.13"><defs><style>.cls-1{fill:#1c3d74;}.cls-2{fill:#ba1515;}</style></defs><title>logo</title><path class="cls-1" d="M23.42,21.47a.7.7,0,0,1-.67-.7c0-.11,0-.42,3.29-13.8a.66.66,0,0,1,.65-.51.68.68,0,0,1,.65.53l3,13.64a.66.66,0,0,1-.51.79.67.67,0,0,1-.8-.51l-2.35-10.8c-1.17,4.8-2.5,10.28-2.56,10.72A.65.65,0,0,1,23.42,21.47Z"/><path class="cls-2" d="M28.32,6.4a.78.78,0,0,1-.41-.12L26.7,5.67l-1.39.65a.8.8,0,0,1-.85-.11.78.78,0,0,1-.25-.82l.36-1.28-.94-.91a.81.81,0,0,1-.2-.81.79.79,0,0,1,.64-.54l1.34-.2L26,.44A.78.78,0,0,1,26.72,0a.79.79,0,0,1,.71.44L28,1.65l1.33.2a.78.78,0,0,1,.64.54.77.77,0,0,1-.2.81l-1,.93.26,1.34a.22.22,0,0,1,0,.08.77.77,0,0,1-.38.73A.75.75,0,0,1,28.32,6.4Zm-1.6-2.15a.78.78,0,0,1,.3.07l.55.28L27.46,4a.63.63,0,0,1,.19-.61L28.07,3l-.59-.08a.68.68,0,0,1-.5-.37L26.72,2l-.27.53a.64.64,0,0,1-.5.37L25.36,3l.43.42a.69.69,0,0,1,.18.66l-.15.51.61-.29A.72.72,0,0,1,26.72,4.25Z"/><path class="cls-1" d="M32.54,34.81H29.66a.67.67,0,1,1,0-1.34h2.21V23.05l-.56.86a.67.67,0,1,1-1.13-.73L32,20.4a.67.67,0,0,1,1.24.37V34.14A.67.67,0,0,1,32.54,34.81Z"/><path class="cls-1" d="M23.78,34.81H20.9a.67.67,0,0,1-.67-.67V20.77a.67.67,0,0,1,1.22-.39l1.95,2.78a.67.67,0,1,1-1.1.77l-.73-1V33.47h2.21a.67.67,0,1,1,0,1.34Z"/><path class="cls-1" d="M22.85,28.12h-2a.67.67,0,0,1,0-1.34h1.28V23.55a.67.67,0,0,1,1.34,0v3.9A.67.67,0,0,1,22.85,28.12Z"/><path class="cls-1" d="M32.54,28.12H30.75a.67.67,0,0,1-.68-.67v-3.9a.68.68,0,0,1,1.35,0v3.23h1.12a.67.67,0,0,1,0,1.34Z"/><path class="cls-1" d="M27.85,28.18H25.58a.67.67,0,0,1-.67-.67V23.27A.67.67,0,0,1,25,23l1.14-2.5a.66.66,0,0,1,.61-.39.67.67,0,0,1,.61.39L28.47,23a.67.67,0,0,1,.06.28v4.24A.67.67,0,0,1,27.85,28.18Zm-1.6-1.34h.93V23.41l-.46-1-.47,1Z"/><path class="cls-1" d="M26.72,36.62a4,4,0,1,1,4-4A4,4,0,0,1,26.72,36.62Zm0-6.6a2.63,2.63,0,1,0,2.62,2.63A2.63,2.63,0,0,0,26.72,30Z"/><path class="cls-1" d="M35.74,38.21H29.86a.67.67,0,1,1,0-1.34h5.21V34.81H32.54a.67.67,0,1,1,0-1.34h3.2a.67.67,0,0,1,.67.67v3.4A.67.67,0,0,1,35.74,38.21Z"/><path class="cls-1" d="M17.69,38.21a.67.67,0,0,1-.67-.67v-3.4a.67.67,0,0,1,.67-.67H20.9a.67.67,0,0,1,0,1.34H18.36v2.73A.67.67,0,0,1,17.69,38.21Z"/><path class="cls-1" d="M17.69,34.81a.67.67,0,0,1-.67-.67V32a.67.67,0,0,1,1.34,0v2.15A.67.67,0,0,1,17.69,34.81Z"/><path class="cls-1" d="M35.74,34.81a.67.67,0,0,1-.67-.67V32a.67.67,0,1,1,1.34,0v2.15A.67.67,0,0,1,35.74,34.81Z"/><path class="cls-1" d="M30,49.76H23.4a.67.67,0,0,1-.67-.67V45.81A9,9,0,0,1,24.88,40l1.33-1.55a.66.66,0,0,1,.51-.23h0a.68.68,0,0,1,.51.23L28.55,40a8.9,8.9,0,0,1,2.15,5.81v3.28A.67.67,0,0,1,30,49.76Zm-6-1.34h5.29V45.81a7.58,7.58,0,0,0-1.83-4.94l-.81-.95-.82.95a7.58,7.58,0,0,0-1.83,4.94Z"/><path class="cls-1" d="M20.55,64.27H17.69a.67.67,0,1,1,0-1.34h2.86a.67.67,0,0,1,0,1.34Z"/><path class="cls-1" d="M40.17,64.27H33a.67.67,0,1,1,0-1.34h7.15a.67.67,0,1,1,0,1.34Z"/><path class="cls-1" d="M12.86,68a.66.66,0,0,1-.67-.67V63.6a.67.67,0,0,1,.67-.67H17V51.44a.67.67,0,0,1,.67-.67H35.74a.67.67,0,0,1,.67.67v8a.67.67,0,1,1-1.34,0V52.11H18.36V63.6a.67.67,0,0,1-.67.67H13.53v3.06A.66.66,0,0,1,12.86,68Z"/><path class="cls-1" d="M34.35,52.11a.67.67,0,0,1-.67-.67V37.54a.67.67,0,0,1,1.34,0v13.9A.67.67,0,0,1,34.35,52.11Z"/><path class="cls-1" d="M19.07,52.11a.67.67,0,0,1-.67-.67V40.78a.67.67,0,0,1,1.34,0V51.44A.67.67,0,0,1,19.07,52.11Z"/><path class="cls-1" d="M29.66,66.66A.67.67,0,0,1,29,66V58.05a2.27,2.27,0,0,0-4.54,0V66a.67.67,0,0,1-1.34,0V58.05a3.61,3.61,0,0,1,7.22,0V66A.67.67,0,0,1,29.66,66.66Z"/><path class="cls-1" d="M49.34,58a.67.67,0,0,1-.67-.67V52.71l-.88.33a.64.64,0,0,1-.47,0l-.89-.33v2.61a.67.67,0,0,1-.67.68H42.18a.67.67,0,0,1-.67-.68V52.73l-.8.31a.69.69,0,0,1-.47,0l-1-.35v2.62a.67.67,0,0,1-.67.68H35.92a.68.68,0,0,1,0-1.35h2V51.74a.68.68,0,0,1,.28-.54.68.68,0,0,1,.62-.09l1.62.59,1.49-.58a.67.67,0,0,1,.91.62v2.91h2.24V51.74a.67.67,0,0,1,.91-.62l1.55.58,1.56-.58a.66.66,0,0,1,.61.07.68.68,0,0,1,.29.55v5.6A.67.67,0,0,1,49.34,58Z"/><path class="cls-1" d="M11.43,56h-8a.68.68,0,0,1,0-1.35h8.05a.68.68,0,0,1,0,1.35Z"/><path class="cls-1" d="M14.11,52.11H2.42a.67.67,0,1,1,0-1.34H14.11a.67.67,0,0,1,0,1.34Z"/><path class="cls-1" d="M17.69,56H15a.68.68,0,0,1,0-1.35h2.68a.68.68,0,0,1,0,1.35Z"/><path class="cls-2" d="M35.51,21.64v1.44a24.7,24.7,0,1,1-17.44-.19V21.47a26,26,0,1,0,17.44.17Z"/><path class="cls-1" d="M84.9,37.41c-.13-2.48-.29-5.45-.26-7.66h-.08C84,31.83,83.22,34,82.32,36.49l-3.13,8.6H77.45l-2.87-8.45c-.84-2.5-1.55-4.79-2-6.89h-.06c0,2.21-.18,5.18-.34,7.84l-.47,7.61H69.47l1.24-17.75h2.92l3,8.59c.74,2.18,1.34,4.13,1.79,6h.08c.45-1.79,1.08-3.73,1.87-6l3.16-8.59h2.92L87.59,45.2H85.35Z"/><path class="cls-1" d="M106.28,36.14c0,6.11-3.71,9.35-8.24,9.35-4.69,0-8-3.63-8-9,0-5.64,3.5-9.32,8.24-9.32S106.28,30.88,106.28,36.14Zm-13.77.29c0,3.79,2,7.19,5.66,7.19s5.69-3.34,5.69-7.37c0-3.53-1.85-7.22-5.66-7.22S92.51,32.54,92.51,36.43Z"/><path class="cls-1" d="M121.65,44.62a11.39,11.39,0,0,1-4.68.84c-5,0-8.77-3.16-8.77-9,0-5.56,3.76-9.32,9.27-9.32a9.65,9.65,0,0,1,4.21.78l-.55,1.87a8.39,8.39,0,0,0-3.58-.73c-4.16,0-6.93,2.66-6.93,7.32,0,4.34,2.5,7.13,6.82,7.13a9.11,9.11,0,0,0,3.74-.74Z"/><path class="cls-1" d="M126.78,27.45v7.88h.72l6.08-7.88h2.76l-6.71,8.14c2.92.4,4.05,2.19,5,4.58a46.66,46.66,0,0,0,2,5h-2.47A32.29,32.29,0,0,1,132.47,41c-.81-2.34-1.95-3.95-5-3.95h-.74V45.2h-2.26V27.45Z"/><path class="cls-1" d="M153.45,36.14c0,6.11-3.71,9.35-8.24,9.35-4.68,0-8-3.63-8-9,0-5.64,3.5-9.32,8.24-9.32S153.45,30.88,153.45,36.14Zm-13.77.29c0,3.79,2.06,7.19,5.67,7.19S151,40.28,151,36.25c0-3.53-1.84-7.22-5.66-7.22S139.68,32.54,139.68,36.43Z"/><path class="cls-1" d="M156.43,27.69a22.21,22.21,0,0,1,4.18-.37c2.3,0,3.77.4,4.88,1.29A3.74,3.74,0,0,1,167,31.75a4.2,4.2,0,0,1-3,3.89v.06a4.57,4.57,0,0,1,3.66,4.44,4.81,4.81,0,0,1-1.5,3.56c-1.24,1.13-3.24,1.66-6.14,1.66a27.63,27.63,0,0,1-3.55-.21ZM158.72,35h2.08c2.42,0,3.84-1.27,3.84-3,0-2.08-1.58-2.89-3.89-2.89a9.7,9.7,0,0,0-2,.16Zm0,8.5a12,12,0,0,0,1.92.11c2.37,0,4.56-.87,4.56-3.45,0-2.42-2.08-3.42-4.59-3.42h-1.89Z"/><path class="cls-1" d="M182.89,44.62a11.41,11.41,0,0,1-4.69.84c-5,0-8.77-3.16-8.77-9,0-5.56,3.77-9.32,9.27-9.32a9.62,9.62,0,0,1,4.21.78l-.55,1.87a8.39,8.39,0,0,0-3.58-.73c-4.16,0-6.92,2.66-6.92,7.32,0,4.34,2.5,7.13,6.82,7.13a9.1,9.1,0,0,0,3.73-.74Z"/><path class="cls-1" d="M188,27.45v7.88h.71l6.08-7.88h2.77l-6.72,8.14c2.93.4,4.06,2.19,5,4.58a46.66,46.66,0,0,0,1.95,5h-2.48a30.89,30.89,0,0,1-1.6-4.19c-.82-2.34-2-3.95-5-3.95H188V45.2h-2.26V27.45Z"/><path class="cls-1" d="M202.18,27.45v7.48c0,2.82-.05,5.14-.21,7.51l.06,0c.89-1.84,2-3.76,3.29-5.87l5.74-9.14h2.29V45.2h-2.16V37.64c0-2.87,0-5,.21-7.21l-.08,0a53.9,53.9,0,0,1-3.29,6l-5.56,8.82H200V27.45Z"/><path class="cls-1" d="M226.54,36.88h-6.9v6.4h7.69V45.2h-10V27.45h9.58v1.93h-7.29V35h6.9Z"/><path class="cls-2" d="M235.62,27.69a35.52,35.52,0,0,1,5.18-.37c2.45,0,3.95.24,5.27,1a3.85,3.85,0,0,1,2.1,3.51,4,4,0,0,1-2.92,3.76v0A4.41,4.41,0,0,1,248.78,40a4.76,4.76,0,0,1-1.84,3.79c-1.29,1-3.45,1.6-7,1.6a31.35,31.35,0,0,1-4.34-.26Zm4,6.79h1.32c2.13,0,3.24-.86,3.24-2.18s-1-2-2.85-2a11.05,11.05,0,0,0-1.71.1Zm0,7.88a13.45,13.45,0,0,0,1.56,0c1.81,0,3.42-.71,3.42-2.58S243,37.35,241,37.35h-1.37Z"/><path class="cls-2" d="M262.07,37.7h-6.52v4.21h7.29V45.2h-11.3V27.45h10.93v3.3h-6.92v3.68h6.52Z"/><path class="cls-2" d="M279.92,27.45V42l1.77.11-.19,7.53h-3l-.21-4.48h-10.4l-.21,4.48H264.6l-.16-7.53,1.5-.11a17.75,17.75,0,0,0,1.69-3.95,23.15,23.15,0,0,0,.68-5.9V27.45ZM272,33.09a21.13,21.13,0,0,1-.79,5.84,17,17,0,0,1-1.22,3h5.9V30.72H272Z"/><path class="cls-2" d="M300,36.14c0,5.85-3.5,9.35-8.71,9.35s-8.35-4-8.35-9.06c0-5.32,3.42-9.29,8.64-9.29C297,27.14,300,31.22,300,36.14Zm-12.82.21c0,3.51,1.63,5.95,4.32,5.95s4.26-2.58,4.26-6c0-3.21-1.5-6-4.26-6S287.19,32.9,287.19,36.35Z"/><path class="cls-2" d="M317.52,38.41c-.08-2.14-.16-4.72-.16-7.3h-.05c-.58,2.27-1.32,4.8-2,6.88l-2.16,6.92H310l-1.89-6.85c-.58-2.1-1.16-4.63-1.61-7h-.05c-.08,2.4-.18,5.14-.29,7.35l-.34,6.74h-3.71l1.13-17.75h5.34l1.74,5.93c.58,2,1.11,4.26,1.5,6.34h.11c.47-2,1.08-4.39,1.68-6.37l1.87-5.9h5.27l.94,17.75h-3.89Z"/><path class="cls-2" d="M340.9,36.14c0,5.85-3.51,9.35-8.72,9.35s-8.34-4-8.34-9.06c0-5.32,3.42-9.29,8.63-9.29C337.92,27.14,340.9,31.22,340.9,36.14Zm-12.83.21c0,3.51,1.64,5.95,4.32,5.95s4.27-2.58,4.27-6c0-3.21-1.5-6-4.27-6S328.07,32.9,328.07,36.35Z"/><path class="cls-2" d="M356.53,44.73a11.79,11.79,0,0,1-4.52.76c-6.14,0-9.3-3.84-9.3-8.9,0-6.05,4.32-9.4,9.69-9.4a10.12,10.12,0,0,1,4.37.79l-.84,3.16a8.49,8.49,0,0,0-3.37-.66c-3.16,0-5.64,1.92-5.64,5.87,0,3.56,2.11,5.8,5.66,5.8a9.57,9.57,0,0,0,3.37-.58Z"/><path class="cls-2" d="M363.14,30.82h-4.79V27.45H372v3.37h-4.85V45.2h-4Z"/><path class="cls-2" d="M377.8,27.45v5.27c0,2.84-.07,5.66-.21,8h.08c.95-2.08,2.14-4.42,3.19-6.32l3.82-7h4.1V45.2H385.1V40a72.86,72.86,0,0,1,.29-7.48h-.08a52.68,52.68,0,0,1-3,6.32l-3.61,6.4h-4.55V27.45Z"/></svg>