<?xml version="1.0" encoding="UTF-8" standalone="no"?>
<!-- Created with Inkscape (http://www.inkscape.org/) -->

<svg
   width="17.972748mm"
   height="17.972765mm"
   viewBox="0 0 17.972748 17.972765"
   version="1.1"
   id="svg1"
   sodipodi:docname="logo_finteh.svg"
   inkscape:version="1.3.2 (091e20ef0f, 2023-11-25)"
   xmlns:inkscape="http://www.inkscape.org/namespaces/inkscape"
   xmlns:sodipodi="http://sodipodi.sourceforge.net/DTD/sodipodi-0.dtd"
   xmlns="http://www.w3.org/2000/svg"
   xmlns:svg="http://www.w3.org/2000/svg">
  <sodipodi:namedview
     id="namedview1"
     pagecolor="#ffffff"
     bordercolor="#000000"
     borderopacity="0.25"
     inkscape:showpageshadow="2"
     inkscape:pageopacity="0.0"
     inkscape:pagecheckerboard="0"
     inkscape:deskcolor="#d1d1d1"
     inkscape:document-units="mm"
     inkscape:zoom="4.7456564"
     inkscape:cx="-2.1071901"
     inkscape:cy="75.964201"
     inkscape:window-width="1920"
     inkscape:window-height="1019"
     inkscape:window-x="0"
     inkscape:window-y="0"
     inkscape:window-maximized="1"
     inkscape:current-layer="svg1" />
  <defs
     id="defs1" />
  <rect
     style="fill:#ffc317;fill-opacity:1;stroke-width:1.02215"
     id="rect11"
     width="18.076056"
     height="17.929743"
     x="0.023683043"
     y="0.065536879"
     ry="0" />
  <path
     style="fill:#a22c2c;fill-opacity:1;stroke-width:0.0281519"
     d="m 5.1751928,14.812229 c -0.004,-0.0116 -0.002,-0.36948 0.005,-0.79529 0.0111,-0.60655 0.0218,-0.7726 0.05,-0.7669 0.0737,0.015 0.42665,-0.0757 0.56235,-0.14446 0.29039,-0.14716 0.50599,-0.44872 0.5661,-0.79182 0.0225,-0.12823 0.058,-1.16046 0.0601,-1.74279 1.4e-4,-0.0517 0.0218,-0.053 0.57026,-0.0353 0.31354,0.01 0.66914,0.0185 0.79021,0.0185 l 0.22014,1.5e-4 -0.0185,0.87974 c -0.0112,0.53473 -0.034,0.9736 -0.058,1.11904 -0.11786,0.71174 -0.5423,1.39848 -1.09574,1.77293 -0.2462,0.16658 -0.37808,0.23394 -0.66537,0.33987 -0.32477,0.11974 -0.9591,0.21383 -0.98689,0.14639 z m -1.96177,-1.18236 -0.7707,-0.008 0.0191,-0.87929 c 0.0206,-0.94955 0.0464,-1.17228 0.18234,-1.5796 0.23578,-0.70627 0.80687,-1.3266 1.47059,-1.5973801 0.29839,-0.12173 0.73826,-0.2219 0.97445,-0.2219 0.17991,0 0.20753,0.007 0.19289,0.0445 -0.01,0.0244 -0.017,0.3774001 -0.017,0.7842401 v 0.73972 l -0.166,0.0174 c -0.44633,0.0466 -0.80229,0.31341 -0.96424,0.72262 -0.0547,0.13825 -0.0635,0.23175 -0.0825,0.87271 -0.0117,0.39483 -0.0223,0.80971 -0.0236,0.92197 -0.001,0.11225 -0.0118,0.20115 -0.0235,0.19754 -0.0116,-0.003 -0.36793,-0.01 -0.79181,-0.0146 z m 5.89143,-2.33662 c 0.007,-0.10449 0.0123,-0.45777 0.0139,-0.785 l 0.003,-0.59499 0.16138,-0.0202 c 0.4231805,-0.0529 0.7340202,-0.2602201 0.9086202,-0.6061201 0.11443,-0.22668 0.13447,-0.39382 0.15592,-1.30017 l 0.0191,-0.8079602 0.77804,0.0165 c 0.42792,0.009 0.78042,0.0182 0.78334,0.0203 0.003,0.002 -0.005,0.44056 -0.0192,0.9744102 -0.027,1.0734 -0.0403,1.16821 -0.2251,1.6208501 -0.23239,0.56915 -0.59657,0.99132 -1.12635,1.3058 -0.33588,0.19938 -0.9210597,0.36652 -1.2832402,0.36652 h -0.18037 z m -2.17629,-1.01344 -0.54638,-0.009 0.0194,-0.8736201 c 0.0264,-1.18621 0.0916,-1.52245 0.40112,-2.0687002 0.42367,-0.74764 1.27164,-1.26954 2.1572,-1.32768 l 0.24633,-0.0162 v 0.78917 0.78918 l -0.15068,0.0188 c -0.37261,0.0466 -0.64839,0.1988202 -0.83691,0.4621002 -0.19634,0.27418 -0.2154,0.38429 -0.2387,1.37878 l -0.0205,0.8775001 -0.24225,-0.007 c -0.13323,-0.003 -0.48811,-0.01 -0.78863,-0.0147 z M 13.072663,7.6616687 c 0.01,-0.24387 0.0185,-0.60308 0.0185,-0.79826 l 7e-5,-0.35487 0.19002,-0.0177 c 0.23823,-0.0223 0.50412,-0.14816 0.67617,-0.32021 0.12963,-0.12964 0.26726,-0.39491 0.3147,-0.60659 0.0152,-0.0679 0.0291,-0.49308 0.031,-0.94482 l 0.003,-0.82136 h 0.48601 c 0.26731,0 0.62101,0.009 0.78599,0.0184 l 0.29997,0.0183 -9.5e-4,0.57987 c -10e-4,0.80087 -0.0399,1.37682 -0.11059,1.64964 -0.0714,0.27558 -0.29326,0.73601 -0.46419,0.96339 -0.30836,0.41021 -0.75059,0.7276102 -1.25379,0.8999102 -0.25162,0.0861 -0.71946,0.17715 -0.91269,0.17754 l -0.0818,1.4e-4 0.0183,-0.4433802 z m -2.63473,-0.78905 -0.0774,-0.01 10e-4,-0.56821 c 0.001,-0.81358 0.0403,-1.39718 0.11082,-1.66613 0.0719,-0.27423 0.27034,-0.69706 0.43536,-0.92743 0.34274,-0.47852 0.91838,-0.86264 1.51802,-1.01304 0.25408,-0.0637 0.69401,-0.11139 0.72666,-0.0787 0.0152,0.0152 0.0177,0.34158 0.007,0.80074 l -0.0197,0.77501 -0.16262,0.0169 c -0.45202,0.0473 -0.78495,0.30633 -0.96026,0.74727 -0.0589,0.14796 -0.0636,0.21309 -0.0779,1.04458 l -0.0152,0.88679 -0.70379,0.001 c -0.38708,4.2e-4 -0.73864,-0.003 -0.78121,-0.009 z"
     id="path9723-6" />
</svg>
